<?xml version="1.0" encoding="utf-8"?>
<!-- Generator: Adobe Illustrator 18.1.1, SVG Export Plug-In . SVG Version: 6.00 Build 0)  -->
<!DOCTYPE svg PUBLIC "-//W3C//DTD SVG 1.1//EN" "http://www.w3.org/Graphics/SVG/1.1/DTD/svg11.dtd">
<svg version="1.1" id="Layer_1" xmlns="http://www.w3.org/2000/svg" xmlns:xlink="http://www.w3.org/1999/xlink" x="0px" y="0px"
	 viewBox="0 0 1281 834" enable-background="new 0 0 1281 834" xml:space="preserve">
<linearGradient id="SVGID_1_" gradientUnits="userSpaceOnUse" x1="643.1119" y1="109.3466" x2="643.1119" y2="545.4889">
	<stop  offset="0" style="stop-color:#F17B8E"/>
	<stop  offset="0.109" style="stop-color:#F17C8D"/>
	<stop  offset="0.2141" style="stop-color:#F28289"/>
	<stop  offset="0.3173" style="stop-color:#F38A82"/>
	<stop  offset="0.3671" style="stop-color:#F48F7E"/>
	<stop  offset="0.3773" style="stop-color:#F19280"/>
	<stop  offset="0.4672" style="stop-color:#DDAE93"/>
	<stop  offset="0.553" style="stop-color:#CBC2A2"/>
	<stop  offset="0.6323" style="stop-color:#BCCEAD"/>
	<stop  offset="0.7031" style="stop-color:#B2D6B3"/>
	<stop  offset="0.7579" style="stop-color:#AEDAB7"/>
	<stop  offset="0.9988" style="stop-color:#B2DDF3"/>
</linearGradient>
<path fill="url(#SVGID_1_)" d="M643.1,109.3c-41.6,113.7-139.7,187.2-139.7,292.3c0,149.2,139.7,143.8,139.7,143.8
	s139.7,5.4,139.7-143.8C782.8,296.6,686.2,223.1,643.1,109.3z"/>
<g>
	<g>
		<g>
			<g>
				<path fill="#FFFFFF" d="M698.6,330.6c1.1,0.2,2.2,0.4,3.2,0.9c1,0.5,2.1,1.1,2.9,2c0.8,0.9,1.5,2.1,1.7,3.4
					c0.2,1.3,0.1,2.7-0.3,3.9c-0.8,2.5-2.7,4.6-5.1,5.9c-2.4,1.3-5.5,1.6-8.3,0.8l-1.8-0.6c-0.6-0.3-1.4-0.6-2-1
					c-0.6-0.4-1.2-0.8-1.7-1.2c-0.5-0.5-1.1-0.9-1.6-1.5c-1.9-2.1-3.2-4.8-3.9-7.5c-0.7-2.7-0.7-5.5-0.4-8.2
					c0.4-2.7,1.1-5.4,2.4-7.9c1.3-2.5,3.2-4.7,5.5-6.4c2.3-1.8,5-3.2,7.9-3.9c2.9-0.7,5.9-0.8,8.6-0.4c1.4,0.2,2.7,0.6,4,0.9
					c0.6,0.2,1.3,0.5,1.9,0.7l0.9,0.4l0.9,0.4l0.9,0.4l0.4,0.2l0.2,0.1l0.1,0.1l0.1,0l0.2,0.1l1.4,0.8l0.4,0.2l0.4,0.3l0.9,0.6
					c0.6,0.4,1.1,0.8,1.6,1.2c2.1,1.6,4.1,3.6,5.7,6c1.6,2.4,2.8,5.2,3.2,8.2c0.5,2.9,0.3,5.9-0.4,8.6c-1.3,5.4-4.2,9.9-7.3,13.6
					c-3.2,3.7-6.9,6.9-10.8,9.6c-1,0.7-2,1.3-3,1.9l-2.9,1.7l-2.8,1.6l-2.7,1.6c-3.6,2.2-7.3,4.5-10.9,6.9
					c-7.2,4.7-14.4,9.5-21.6,14.3l-10.8,7.3c-3.6,2.4-7.2,4.9-11,7.3l-8.4,5.3l0-10l0,0l0-0.3l0-0.2c0.4-4.5,0.9-8.8,1.4-13.1
					l1.5-12.9c1-8.6,2-17.2,2.8-25.8c0.4-4.3,0.8-8.6,1.1-12.8c0.2-2.1,0.3-4.3,0.4-6.4l0.2-3.3c0.1-1.2,0.2-2.5,0.4-3.6
					c0.6-4.7,1.7-9.4,3.6-13.9c1.9-4.5,4.5-9.1,8.7-12.8c2.1-1.8,4.6-3.4,7.5-4.3c2.8-0.9,5.9-1.2,8.7-0.9c2.9,0.3,5.5,1.2,7.9,2.3
					c2.4,1.1,4.6,2.4,6.5,4l0.7,0.5l0.8,0.7c0.5,0.5,1.1,1,1.6,1.5c0.9,1,1.9,2,2.7,3.2c1.6,2.3,2.9,5,3.6,7.9
					c0.7,2.9,0.6,5.9,0.1,8.8c-0.5,2.9-1.6,5.6-3.2,7.8c-3.4,4.4-7.9,7.7-13.4,9c-2.7,0.6-5.6,0.7-8.4,0c-0.7-0.2-1.4-0.5-2-0.7
					c-0.6-0.3-1.3-0.6-1.9-1c-0.6-0.4-1.1-0.8-1.7-1.2l-0.7-0.7l-0.4-0.3l-0.2-0.2l-0.1-0.1c-0.2-0.2-0.1-0.1-0.1-0.1l0,0l-0.5-0.6
					c-0.2-0.3-0.5-0.6-0.7-1c-0.4-0.6-0.7-1.3-1-1.9c-0.5-1.3-0.8-2.7-0.8-4.1c0-2.7,1.1-5.3,2.9-7.2c0.9-0.9,2.1-1.7,3.3-2
					c1.3-0.4,2.6-0.4,3.8,0c1.2,0.3,2.2,0.9,3.1,1.6c0.9,0.7,1.6,1.6,2.2,2.5c-1.7-1.4-3.6-2.5-5.6-2.5c-1,0-1.9,0.2-2.6,0.6
					c-0.8,0.5-1.4,1.1-1.8,1.9c-0.9,1.5-1.2,3.3-0.8,4.9c0.2,0.8,0.5,1.5,0.9,2.1c0.2,0.3,0.5,0.6,0.7,0.8c0.1,0.1,0.2,0.2,0.3,0.3
					l0.6,0.5l0,0c0,0,0.1,0.1-0.1-0.1l0.1,0l0.1,0.1l0.3,0.2l0.5,0.3c0.4,0.2,0.7,0.3,1.1,0.5l1.1,0.3c0.4,0,0.7,0.1,1.1,0.1
					c1.5,0.1,3-0.3,4.4-1c2.9-1.4,5.3-4,6.7-6.8c0.6-1.4,1.3-2.8,1.7-4.1c0.3-1.4,0.3-2.8,0-4.1c-0.3-1.3-0.9-2.6-1.8-3.9
					c-0.4-0.6-1-1.2-1.5-1.8l-0.8-0.7c-0.1-0.1-0.2-0.2-0.4-0.4l-0.7-0.5c-2.9-2.3-6.2-3.8-9.1-4.1c-2.9-0.3-5.5,0.5-7.8,2.5
					c-2.4,2-4.3,5.1-5.7,8.6c-1.4,3.5-2.3,7.3-2.8,11.2c-0.5,3.6-0.5,8.4-0.9,12.7c-0.3,4.4-0.7,8.8-1.1,13.1
					c-0.8,8.7-1.8,17.4-2.8,26l-1.5,12.9c-0.5,4.3-1,8.6-1.4,12.8l0-0.5l0,0l-8.4-4.7c3.5-2.2,7.1-4.7,10.7-7.1l10.8-7.3
					c7.2-4.9,14.5-9.7,21.8-14.4c3.7-2.4,7.4-4.7,11.1-7l2.9-1.7l2.8-1.6l2.7-1.6c0.8-0.5,1.7-1.1,2.5-1.6c3.3-2.2,6.2-4.8,8.7-7.7
					c2.4-2.8,4.3-6,5-9c0.7-3.1,0.3-5.7-1.3-8.1c-0.8-1.2-1.9-2.4-3.3-3.4c-0.3-0.3-0.7-0.5-1-0.7l-0.5-0.3l-0.2-0.2l-0.3-0.2
					l-1.4-0.8c0.1,0-0.2-0.1,0.1,0.1l0,0l-0.1,0l-0.1-0.1l-0.3-0.1l-0.6-0.3c-3.2-1.5-6.3-2-8.9-1.3c-1.3,0.3-2.6,1-3.7,1.9
					c-1.1,1-1.9,2.2-2.9,3.4c-1.9,2.5-3.1,5.9-3,9c0.1,3.2,1.5,5.9,4.5,7.6c1.3,0.7,2.8,1,4.4,0.6c1.6-0.4,3.1-1.5,4-3
					c0.5-0.7,0.8-1.6,0.8-2.4c0.1-0.9-0.1-1.8-0.6-2.6C702.5,332.7,700.6,331.5,698.6,330.6z"/>
			</g>
			<g>
				<path fill="#FFFFFF" d="M611,315.2c0.7-0.8,1.4-1.7,2.4-2.4c0.9-0.7,2-1.2,3.2-1.5c1.2-0.3,2.5-0.2,3.8,0.2
					c1.2,0.4,2.3,1.2,3.2,2.2c1.8,2,2.7,4.6,2.6,7.4c-0.1,2.8-1.4,5.6-3.4,7.6l-1.4,1.2c-0.5,0.4-1.2,0.8-1.9,1.2
					c-0.6,0.3-1.3,0.6-1.9,0.9c-0.7,0.2-1.4,0.5-2.1,0.6c-2.8,0.6-5.8,0.4-8.4-0.4c-2.7-0.8-5.1-2.1-7.3-3.7c-2.2-1.7-4.1-3.7-5.6-6
					c-1.5-2.3-2.5-5.1-2.8-8c-0.4-2.9-0.3-5.9,0.5-8.8c0.8-2.9,2.2-5.5,4-7.7c0.9-1.1,1.8-2.1,2.8-3c0.5-0.5,1-0.9,1.5-1.3l0.8-0.6
					l0.8-0.5l0.8-0.5l0.4-0.3l0.2-0.1l0.1-0.1l0.1,0l0.2-0.1l1.4-0.8l0.4-0.2l0.5-0.2l0.9-0.5c0.6-0.3,1.2-0.6,1.8-0.8
					c2.4-1,5.1-1.7,8-1.9c2.9-0.2,5.9,0.2,8.7,1.3c2.8,1,5.2,2.7,7.3,4.6c4,3.9,6.5,8.5,8.1,13.2c1.6,4.7,2.5,9.4,2.9,14.1
					c0.1,1.2,0.1,2.4,0.2,3.5l0,3.4l0,3.3l0.1,3.2c0.1,4.2,0.3,8.6,0.5,12.9c0.4,8.6,1,17.2,1.6,25.9l0.9,13
					c0.3,4.4,0.6,8.7,0.8,13.2l0.4,9.9l-8.6-5l0,0l-0.2-0.1l-0.2-0.1c-3.7-2.6-7.2-5.2-10.7-7.8l-10.4-7.8
					c-7-5.2-13.9-10.3-20.9-15.3c-3.5-2.5-7-5-10.6-7.4c-1.8-1.2-3.5-2.4-5.3-3.5l-2.8-1.8c-1-0.7-2-1.4-2.9-2.1
					c-3.8-2.9-7.3-6.2-10.3-10.1c-3-3.9-5.6-8.5-6.7-14c-0.5-2.7-0.6-5.7,0-8.6c0.6-2.9,1.9-5.7,3.6-8c1.7-2.3,3.8-4.2,5.9-5.7
					c2.2-1.5,4.4-2.7,6.7-3.7l0.7-0.3l1-0.3c0.7-0.2,1.4-0.5,2.1-0.7c1.3-0.3,2.7-0.6,4.1-0.7c2.8-0.3,5.8-0.1,8.6,0.8
					c2.8,0.9,5.5,2.4,7.7,4.3c2.2,1.9,4.1,4.1,5.1,6.7c2.2,5.1,2.7,10.7,1.1,16.1c-0.8,2.7-2.2,5.2-4.2,7.3
					c-0.5,0.5-1.1,0.9-1.6,1.4c-0.6,0.4-1.2,0.8-1.8,1.1c-0.6,0.3-1.3,0.6-1.9,0.8l-1,0.3l-0.5,0.1l-0.2,0.1l-0.1,0
					c-0.3,0.1-0.1,0-0.2,0.1l-0.1,0l-0.8,0.1c-0.4,0-0.8,0.1-1.2,0.1c-0.8,0-1.4,0-2.2-0.1c-1.4-0.2-2.8-0.7-3.9-1.4
					c-2.4-1.4-4.1-3.6-4.8-6.1c-0.3-1.3-0.4-2.6-0.1-3.9c0.3-1.3,1-2.4,1.8-3.3c0.9-0.9,1.9-1.4,3-1.9c1.1-0.4,2.2-0.6,3.2-0.7
					c-2,0.8-4,1.9-5,3.6c-0.5,0.8-0.8,1.7-0.7,2.6c0,0.9,0.3,1.7,0.7,2.5c0.8,1.5,2.3,2.7,3.8,3.2c0.8,0.2,1.6,0.3,2.3,0.3
					c0.4,0,0.8-0.1,1.1-0.2c0.1-0.1,0.3-0.1,0.4-0.1l0.8-0.3l0,0c0,0,0.2-0.1-0.1,0l0.1,0l0.1-0.1l0.3-0.2l0.5-0.3
					c0.3-0.2,0.6-0.5,1-0.7l0.8-0.8c0.2-0.3,0.5-0.6,0.7-0.9c0.8-1.3,1.3-2.8,1.4-4.3c0.3-3.2-0.8-6.6-2.6-9.2
					c-0.9-1.3-1.7-2.5-2.7-3.5c-1-1-2.3-1.7-3.6-2.1c-1.3-0.4-2.7-0.5-4.3-0.4c-0.8,0-1.5,0.3-2.3,0.4l-1,0.3
					c-0.2,0.1-0.3,0.1-0.5,0.2l-0.7,0.3c-3.4,1.4-6.4,3.4-8.1,5.8c-1.7,2.3-2.3,5-1.7,8.1c0.6,3.1,2.3,6.3,4.6,9.3
					c2.3,3,5.1,5.7,8.3,8.1c2.8,2.2,7,4.6,10.5,7.1c3.6,2.5,7.2,5,10.8,7.5c7.1,5.1,14.1,10.3,21.1,15.4l10.4,7.8
					c3.5,2.6,7,5.2,10.4,7.6l-0.4-0.3l0,0l-8.2,5c-0.2-4.2-0.5-8.5-0.8-12.8l-0.9-13c-0.6-8.7-1.2-17.4-1.6-26.1
					c-0.2-4.4-0.4-8.7-0.5-13.2l-0.1-3.3l0-3.3l0-3.1c-0.1-1-0.1-2-0.2-3c-0.3-3.9-1.1-7.8-2.3-11.3c-1.2-3.5-3-6.7-5.3-8.8
					c-2.3-2.2-4.8-3.1-7.7-2.9c-1.5,0.1-3,0.5-4.6,1.1c-0.4,0.2-0.8,0.3-1.1,0.5L611,300l-0.3,0.1l-0.3,0.2l-1.4,0.8
					c0.1,0-0.2,0.1,0.1-0.1l0,0l-0.1,0l-0.1,0.1l-0.3,0.2l-0.5,0.4c-2.9,2-4.9,4.5-5.6,7.1c-0.4,1.3-0.5,2.7-0.2,4.1
					c0.3,1.4,0.9,2.8,1.5,4.2c1.2,2.9,3.5,5.6,6.3,7.1c2.8,1.5,5.9,1.7,8.8-0.1c1.3-0.8,2.3-2,2.7-3.5c0.4-1.5,0.3-3.4-0.6-4.9
					c-0.4-0.8-1-1.4-1.7-1.9c-0.7-0.5-1.6-0.8-2.6-0.8C614.8,313,612.8,313.9,611,315.2z"/>
			</g>
			<g>
				<path fill="#FFFFFF" d="M554.4,384.4c-0.4-1-0.7-2.1-0.9-3.2c-0.1-1.1-0.1-2.3,0.3-3.5c0.4-1.2,1.1-2.3,2.1-3.2
					c1-0.8,2.2-1.4,3.5-1.7c2.6-0.5,5.4,0,7.7,1.5c2.4,1.4,4.2,4,4.9,6.8l0.4,1.8c0.1,0.7,0.1,1.5,0.1,2.3c0,0.7-0.1,1.4-0.2,2.1
					c-0.2,0.7-0.3,1.4-0.5,2.1c-0.9,2.8-2.5,5.2-4.5,7.1c-2,1.9-4.4,3.4-6.9,4.4c-2.5,1-5.2,1.7-8,1.9c-2.8,0.2-5.7-0.4-8.3-1.5
					c-2.7-1.1-5.3-2.7-7.3-4.8c-2.1-2.1-3.6-4.7-4.7-7.3c-0.5-1.3-0.9-2.6-1.2-4c-0.1-0.7-0.2-1.3-0.3-2l-0.1-1l-0.1-1l-0.1-1l0-0.5
					l0-0.2l0-0.1l0-0.1l0-0.2l0-1.6l0-0.4l0-0.5l0.1-1c0-0.7,0.1-1.4,0.2-2c0.4-2.6,1.1-5.3,2.4-7.9c1.3-2.6,3.1-5,5.4-6.9
					c2.3-1.9,5-3.2,7.6-4c5.4-1.6,10.6-1.3,15.5-0.4c4.8,0.9,9.4,2.5,13.7,4.6c1.1,0.5,2.1,1,3.2,1.6l3,1.7l2.8,1.6l2.8,1.5
					c3.7,2,7.6,4,11.4,6c7.7,3.9,15.4,7.8,23.2,11.6l11.7,5.7c3.9,1.9,7.8,3.8,11.8,5.9l8.8,4.6l-8.6,5l0,0l-0.2,0.1l-0.2,0.1
					c-4.1,1.9-8.1,3.6-12.1,5.3l-12,5.2c-8,3.4-15.9,6.9-23.7,10.5c-3.9,1.8-7.8,3.6-11.7,5.5c-1.9,0.9-3.8,1.9-5.7,2.8l-3,1.5
					c-1.1,0.5-2.2,1-3.3,1.5c-4.4,1.8-9,3.2-13.9,3.9c-4.9,0.6-10.1,0.6-15.4-1.2c-2.6-0.9-5.2-2.3-7.5-4.3c-2.2-2-4-4.5-5.1-7.2
					c-1.2-2.6-1.7-5.4-2-8c-0.2-2.6-0.2-5.2,0.2-7.6l0.1-0.8l0.2-1c0.1-0.7,0.3-1.4,0.5-2.1c0.4-1.3,0.8-2.6,1.4-3.9
					c1.2-2.6,2.8-5,5-7.1c2.2-2,4.8-3.5,7.6-4.5c2.7-1,5.6-1.4,8.4-1.1c5.5,0.7,10.6,3,14.5,7.1c1.9,2,3.4,4.5,4.2,7.3
					c0.2,0.7,0.3,1.4,0.4,2.1c0.1,0.7,0.1,1.4,0.1,2.1c-0.1,0.7-0.1,1.4-0.2,2.1l-0.2,1l-0.1,0.5l-0.1,0.2l0,0.1
					c-0.1,0.3,0,0.1-0.1,0.2l0,0l-0.3,0.8c-0.1,0.3-0.3,0.7-0.5,1.1c-0.4,0.7-0.7,1.2-1.2,1.8c-0.9,1.1-2,2-3.2,2.7
					c-2.4,1.3-5.2,1.7-7.7,1.1c-1.3-0.3-2.5-1-3.4-1.8c-1-0.9-1.6-2.1-1.9-3.2c-0.3-1.2-0.3-2.4-0.1-3.5c0.2-1.1,0.6-2.2,1-3.2
					c-0.4,2.1-0.3,4.4,0.6,6.1c0.5,0.8,1.1,1.5,1.9,1.9c0.8,0.4,1.6,0.6,2.5,0.6c1.7,0.1,3.5-0.6,4.7-1.7c0.6-0.5,1.1-1.2,1.4-1.9
					c0.2-0.3,0.3-0.7,0.4-1c0-0.2,0-0.3,0.1-0.4l0.1-0.8l0-0.1c0,0,0-0.2,0,0.1l0-0.1l0-0.2l0-0.3l0-0.6c0-0.4-0.1-0.8-0.1-1.2
					l-0.3-1.1c-0.2-0.3-0.3-0.7-0.4-1c-0.7-1.3-1.8-2.5-3.1-3.4c-2.6-1.8-6.1-2.6-9.3-2.3c-1.6,0.2-3,0.2-4.4,0.6
					c-1.4,0.4-2.6,1.1-3.6,2.1c-1,0.9-1.8,2.1-2.4,3.5c-0.3,0.7-0.6,1.5-0.8,2.2l-0.2,1.1c0,0.2-0.1,0.3-0.1,0.5l-0.1,0.8
					c-0.5,3.7-0.2,7.3,0.9,9.9c1.2,2.7,3.2,4.5,6.1,5.5c2.9,1,6.6,1.2,10.3,0.7c3.7-0.5,7.5-1.6,11.1-3.1c3.3-1.3,7.5-3.7,11.4-5.5
					c4-1.9,7.9-3.8,11.9-5.6c8-3.6,15.9-7.1,23.9-10.6l12-5.2c4-1.7,8-3.4,11.8-5.2l-0.4,0.2l0,0l0.2,9.6c-3.7-1.9-7.6-3.8-11.5-5.7
					l-11.7-5.7c-7.8-3.8-15.6-7.7-23.4-11.7c-3.9-2-7.8-4-11.7-6.1l-2.9-1.6l-2.8-1.6l-2.7-1.5c-0.9-0.4-1.8-0.9-2.7-1.3
					c-3.6-1.7-7.3-3-11-3.7c-3.7-0.7-7.3-0.7-10.3,0.2c-3,0.9-5.1,2.6-6.4,5.2c-0.6,1.3-1.1,2.8-1.3,4.5c-0.1,0.4-0.1,0.8-0.1,1.2
					l0,0.6l0,0.3l0,0.4l0,1.6c0-0.1,0,0.2,0-0.1l0,0l0,0.1l0,0.2l0,0.3l0,0.7c0.2,3.5,1.4,6.4,3.3,8.4c1,1,2.1,1.8,3.5,2.2
					c1.4,0.4,2.9,0.6,4.4,0.8c3.1,0.4,6.6-0.2,9.3-1.9c2.7-1.7,4.4-4.2,4.3-7.7c0-1.5-0.6-2.9-1.7-4.1c-1.1-1.1-2.8-1.9-4.5-2
					c-0.9,0-1.7,0.1-2.5,0.5c-0.8,0.4-1.5,1-2,1.8C554.3,380,554.1,382.3,554.4,384.4z"/>
			</g>
			<g>
				<path fill="#FFFFFF" d="M584.9,467.8c-1.1-0.2-2.2-0.4-3.2-0.9c-1-0.5-2.1-1.1-2.9-2c-0.8-0.9-1.5-2.1-1.7-3.4
					c-0.2-1.3-0.1-2.7,0.3-3.9c0.8-2.5,2.7-4.6,5.1-5.9c2.4-1.3,5.5-1.6,8.3-0.8l1.8,0.6c0.6,0.3,1.4,0.6,2,1
					c0.6,0.4,1.2,0.8,1.7,1.2c0.5,0.5,1.1,0.9,1.6,1.5c1.9,2.1,3.2,4.8,3.9,7.5c0.7,2.7,0.7,5.5,0.4,8.2c-0.4,2.7-1.1,5.4-2.4,7.9
					c-1.3,2.5-3.2,4.7-5.5,6.4c-2.3,1.8-5,3.2-7.9,3.9c-2.9,0.7-5.9,0.8-8.6,0.4c-1.4-0.2-2.7-0.6-4-0.9c-0.6-0.2-1.3-0.5-1.9-0.7
					l-0.9-0.4l-0.9-0.4l-0.9-0.4l-0.4-0.2l-0.2-0.1l-0.1-0.1l-0.1,0l-0.2-0.1l-1.4-0.8l-0.4-0.2l-0.4-0.3l-0.9-0.6
					c-0.6-0.4-1.1-0.8-1.6-1.2c-2.1-1.6-4.1-3.6-5.7-6c-1.6-2.4-2.8-5.2-3.2-8.2c-0.5-2.9-0.3-5.9,0.4-8.6c1.3-5.4,4.2-9.9,7.3-13.6
					c3.2-3.7,6.9-6.9,10.8-9.6c1-0.7,2-1.3,3-1.9l2.9-1.7l2.8-1.6l2.7-1.6c3.6-2.2,7.3-4.5,10.9-6.9c7.2-4.7,14.4-9.5,21.6-14.3
					l10.8-7.3c3.6-2.4,7.2-4.9,11-7.3l8.4-5.3l0,10l0,0l0,0.3l0,0.2c-0.4,4.5-0.9,8.8-1.4,13.1l-1.5,12.9c-1,8.6-2,17.2-2.8,25.8
					c-0.4,4.3-0.8,8.6-1.1,12.8c-0.2,2.1-0.3,4.3-0.4,6.4l-0.2,3.3c-0.1,1.2-0.2,2.5-0.4,3.6c-0.6,4.7-1.7,9.4-3.6,13.9
					c-1.9,4.5-4.5,9.1-8.7,12.8c-2.1,1.8-4.6,3.4-7.5,4.3c-2.8,0.9-5.9,1.2-8.7,0.9c-2.9-0.3-5.5-1.2-7.9-2.3
					c-2.4-1.1-4.6-2.4-6.5-4l-0.7-0.5l-0.8-0.7c-0.5-0.5-1.1-1-1.6-1.5c-0.9-1-1.9-2-2.7-3.2c-1.6-2.3-2.9-5-3.6-7.9
					c-0.7-2.9-0.6-5.9-0.1-8.8c0.5-2.9,1.6-5.6,3.2-7.8c3.4-4.4,7.9-7.7,13.4-9c2.7-0.6,5.6-0.7,8.4,0c0.7,0.2,1.4,0.5,2,0.7
					c0.6,0.3,1.3,0.6,1.9,1c0.6,0.4,1.1,0.8,1.7,1.2l0.7,0.7l0.4,0.3l0.2,0.2l0.1,0.1c0.2,0.2,0.1,0.1,0.1,0.1l0,0l0.5,0.6
					c0.2,0.3,0.5,0.6,0.7,1c0.4,0.6,0.7,1.3,1,1.9c0.5,1.3,0.8,2.7,0.8,4.1c0,2.7-1.1,5.3-2.9,7.2c-0.9,0.9-2.1,1.7-3.3,2
					c-1.3,0.4-2.6,0.4-3.8,0c-1.2-0.3-2.2-0.9-3.1-1.6c-0.9-0.7-1.6-1.6-2.2-2.5c1.7,1.4,3.6,2.5,5.6,2.5c1,0,1.9-0.2,2.6-0.6
					c0.8-0.5,1.4-1.1,1.8-1.9c0.9-1.5,1.2-3.3,0.8-4.9c-0.2-0.8-0.5-1.5-0.9-2.1c-0.2-0.3-0.5-0.6-0.7-0.8c-0.1-0.1-0.2-0.2-0.3-0.3
					l-0.6-0.5l0,0c0,0-0.1-0.1,0.1,0.1l-0.1,0l-0.1-0.1l-0.3-0.2l-0.5-0.3c-0.4-0.2-0.7-0.3-1.1-0.5l-1.1-0.3
					c-0.4,0-0.7-0.1-1.1-0.1c-1.5-0.1-3,0.3-4.4,1c-2.9,1.4-5.3,4-6.7,6.8c-0.6,1.4-1.3,2.8-1.7,4.1c-0.3,1.4-0.3,2.8,0,4.1
					c0.3,1.3,0.9,2.6,1.8,3.9c0.4,0.6,1,1.2,1.5,1.8l0.8,0.7c0.1,0.1,0.2,0.2,0.4,0.4l0.7,0.5c2.9,2.3,6.2,3.8,9.1,4.1
					c2.9,0.3,5.5-0.5,7.8-2.5c2.4-2,4.3-5.1,5.7-8.6c1.4-3.5,2.3-7.3,2.8-11.2c0.5-3.6,0.5-8.4,0.9-12.7c0.3-4.4,0.7-8.8,1.1-13.1
					c0.8-8.7,1.8-17.4,2.8-26l1.5-12.9c0.5-4.3,1-8.6,1.4-12.8l0,0.5l0,0l8.4,4.7c-3.5,2.2-7.1,4.7-10.7,7.1l-10.8,7.3
					c-7.2,4.9-14.5,9.7-21.8,14.4c-3.7,2.4-7.4,4.7-11.1,7l-2.9,1.7l-2.8,1.6l-2.7,1.6c-0.8,0.5-1.7,1.1-2.5,1.6
					c-3.3,2.2-6.2,4.8-8.7,7.7c-2.4,2.8-4.3,6-5,9c-0.7,3.1-0.3,5.7,1.3,8.1c0.8,1.2,1.9,2.4,3.3,3.4c0.3,0.3,0.7,0.5,1,0.7l0.5,0.3
					l0.2,0.2l0.3,0.2l1.4,0.8c-0.1,0,0.2,0.1-0.1-0.1l0,0l0.1,0l0.1,0.1l0.3,0.1l0.6,0.3c3.2,1.5,6.3,2,8.9,1.3
					c1.3-0.3,2.6-1,3.7-1.9c1.1-1,1.9-2.2,2.9-3.4c1.9-2.5,3.1-5.9,3-9c-0.1-3.2-1.5-5.9-4.5-7.6c-1.3-0.7-2.8-1-4.4-0.6
					c-1.6,0.4-3.1,1.5-4,3c-0.5,0.7-0.8,1.6-0.8,2.4c-0.1,0.9,0.1,1.8,0.6,2.6C581,465.7,582.9,467,584.9,467.8z"/>
			</g>
			<g>
				<path fill="#FFFFFF" d="M673.2,483.6c-0.7,0.8-1.4,1.7-2.4,2.4c-0.9,0.7-2,1.2-3.2,1.5c-1.2,0.3-2.5,0.2-3.8-0.2
					c-1.2-0.4-2.3-1.2-3.2-2.2c-1.8-2-2.7-4.6-2.6-7.4c0.1-2.8,1.4-5.6,3.4-7.6l1.4-1.2c0.5-0.4,1.2-0.8,1.9-1.2
					c0.6-0.3,1.3-0.6,1.9-0.9c0.7-0.2,1.4-0.5,2.1-0.6c2.8-0.6,5.8-0.4,8.4,0.4c2.7,0.8,5.1,2.1,7.3,3.7c2.2,1.7,4.1,3.7,5.6,6
					c1.5,2.3,2.5,5.1,2.8,8c0.4,2.9,0.3,5.9-0.5,8.8c-0.8,2.9-2.2,5.5-4,7.7c-0.9,1.1-1.8,2.1-2.8,3c-0.5,0.5-1,0.9-1.5,1.3
					l-0.8,0.6l-0.8,0.5l-0.8,0.5l-0.4,0.3l-0.2,0.1l-0.1,0.1l-0.1,0l-0.2,0.1l-1.4,0.8l-0.4,0.2l-0.5,0.2l-0.9,0.5
					c-0.6,0.3-1.2,0.6-1.8,0.8c-2.4,1-5.1,1.7-8,1.9c-2.9,0.2-5.9-0.2-8.7-1.3c-2.8-1-5.2-2.7-7.3-4.6c-4-3.9-6.5-8.5-8.1-13.2
					c-1.6-4.7-2.5-9.4-2.9-14.1c-0.1-1.2-0.1-2.4-0.2-3.5l0-3.4l0-3.3l-0.1-3.2c-0.1-4.2-0.3-8.6-0.5-12.9c-0.4-8.6-1-17.2-1.6-25.9
					l-0.9-13c-0.3-4.4-0.6-8.7-0.8-13.2l-0.4-9.9l8.6,5l0,0l0.2,0.1l0.2,0.1c3.7,2.6,7.2,5.2,10.7,7.8l10.4,7.8
					c7,5.2,13.9,10.3,20.9,15.3c3.5,2.5,7,5,10.6,7.4c1.8,1.2,3.5,2.4,5.3,3.5l2.8,1.8c1,0.7,2,1.4,2.9,2.1
					c3.8,2.9,7.3,6.2,10.3,10.1c3,3.9,5.6,8.5,6.7,14c0.5,2.7,0.6,5.7,0,8.6c-0.6,2.9-1.9,5.7-3.6,8c-1.7,2.3-3.8,4.2-5.9,5.7
					c-2.2,1.5-4.4,2.7-6.7,3.7l-0.7,0.3l-1,0.3c-0.7,0.2-1.4,0.5-2.1,0.7c-1.3,0.3-2.7,0.6-4.1,0.7c-2.8,0.3-5.8,0.1-8.6-0.8
					c-2.8-0.9-5.5-2.4-7.7-4.3c-2.2-1.9-4.1-4.1-5.1-6.7c-2.2-5.1-2.7-10.7-1.1-16.1c0.8-2.7,2.2-5.2,4.2-7.3
					c0.5-0.5,1.1-0.9,1.6-1.4c0.6-0.4,1.2-0.8,1.8-1.1c0.6-0.3,1.3-0.6,1.9-0.8l1-0.3l0.5-0.1l0.2-0.1l0.1,0c0.3-0.1,0.1,0,0.2-0.1
					l0.1,0l0.8-0.1c0.4,0,0.8-0.1,1.2-0.1c0.8,0,1.4,0,2.2,0.1c1.4,0.2,2.8,0.7,3.9,1.4c2.4,1.4,4.1,3.6,4.8,6.1
					c0.3,1.3,0.4,2.6,0.1,3.9c-0.3,1.3-1,2.4-1.8,3.3c-0.9,0.9-1.9,1.4-3,1.9c-1.1,0.4-2.2,0.6-3.2,0.7c2-0.8,4-1.9,5-3.6
					c0.5-0.8,0.8-1.7,0.7-2.6c0-0.9-0.3-1.7-0.7-2.5c-0.8-1.5-2.3-2.7-3.8-3.2c-0.8-0.2-1.6-0.3-2.3-0.3c-0.4,0-0.8,0.1-1.1,0.2
					c-0.1,0.1-0.3,0.1-0.4,0.1l-0.8,0.3l0,0c0,0-0.2,0.1,0.1,0l-0.1,0l-0.1,0.1l-0.3,0.2l-0.5,0.3c-0.3,0.2-0.6,0.5-1,0.7l-0.8,0.8
					c-0.2,0.3-0.5,0.6-0.7,0.9c-0.8,1.3-1.3,2.8-1.4,4.3c-0.3,3.2,0.8,6.6,2.6,9.2c0.9,1.3,1.7,2.5,2.7,3.5c1,1,2.3,1.7,3.6,2.1
					c1.3,0.4,2.7,0.5,4.3,0.4c0.8,0,1.5-0.2,2.3-0.4l1-0.3c0.2-0.1,0.3-0.1,0.5-0.2l0.7-0.3c3.4-1.4,6.4-3.4,8.1-5.8
					c1.7-2.3,2.3-5,1.7-8.1c-0.6-3.1-2.3-6.3-4.6-9.3c-2.3-3-5.1-5.7-8.3-8.1c-2.8-2.2-7-4.6-10.5-7.1c-3.6-2.5-7.2-5-10.8-7.5
					c-7.1-5.1-14.1-10.3-21.1-15.4l-10.4-7.8c-3.5-2.6-7-5.2-10.4-7.6l0.4,0.3l0,0l8.2-5c0.2,4.2,0.5,8.5,0.8,12.8l0.9,13
					c0.6,8.7,1.2,17.4,1.6,26.1c0.2,4.4,0.4,8.7,0.5,13.2l0.1,3.3l0,3.3l0,3.1c0.1,1,0.1,2,0.2,3c0.3,3.9,1.1,7.8,2.3,11.3
					c1.2,3.5,3,6.7,5.3,8.8c2.3,2.2,4.8,3.1,7.7,2.9c1.5-0.1,3-0.5,4.6-1.1c0.4-0.2,0.8-0.3,1.1-0.5l0.5-0.3l0.3-0.1l0.3-0.2
					l1.4-0.8c-0.1,0,0.2-0.1-0.1,0.1l0,0l0.1,0l0.1-0.1l0.3-0.2l0.5-0.4c2.9-2,4.9-4.5,5.6-7.1c0.4-1.3,0.5-2.7,0.2-4.1
					c-0.3-1.4-0.9-2.8-1.5-4.2c-1.2-2.9-3.5-5.6-6.3-7.1c-2.8-1.5-5.9-1.7-8.8,0.1c-1.3,0.8-2.3,2-2.7,3.5c-0.4,1.5-0.3,3.4,0.6,4.9
					c0.4,0.8,1,1.4,1.7,1.9c0.7,0.5,1.6,0.8,2.6,0.8C669.5,485.9,671.5,484.9,673.2,483.6z"/>
			</g>
			<g>
				<path fill="#FFFFFF" d="M729.8,414.4c0.4,1,0.7,2.1,0.9,3.2c0.1,1.1,0.1,2.3-0.3,3.5c-0.4,1.2-1.1,2.3-2.1,3.2
					c-1,0.8-2.2,1.4-3.5,1.7c-2.6,0.5-5.4,0-7.7-1.5c-2.4-1.4-4.2-4-4.9-6.8l-0.4-1.8c-0.1-0.7-0.1-1.5-0.1-2.3
					c0-0.7,0.1-1.4,0.2-2.1c0.2-0.7,0.3-1.4,0.5-2.1c0.9-2.8,2.5-5.2,4.5-7.1c2-1.9,4.4-3.4,6.9-4.4c2.5-1,5.2-1.7,8-1.9
					c2.8-0.2,5.7,0.4,8.3,1.5c2.7,1.1,5.3,2.7,7.3,4.8c2.1,2.1,3.6,4.7,4.7,7.3c0.5,1.3,0.9,2.6,1.2,4c0.1,0.7,0.2,1.3,0.3,2l0.1,1
					l0.1,1l0.1,1l0,0.5l0,0.2l0,0.1l0,0.1l0,0.2l0,1.6l0,0.4l0,0.5l-0.1,1c0,0.7-0.1,1.4-0.2,2c-0.4,2.6-1.1,5.3-2.4,7.9
					c-1.3,2.6-3.1,5-5.4,6.9c-2.3,1.9-5,3.2-7.6,4c-5.4,1.6-10.6,1.3-15.5,0.4c-4.8-0.9-9.4-2.5-13.7-4.6c-1.1-0.5-2.1-1-3.2-1.6
					l-3-1.7l-2.8-1.6l-2.8-1.5c-3.7-2-7.6-4-11.4-6c-7.7-3.9-15.4-7.8-23.2-11.6l-11.7-5.7c-3.9-1.9-7.8-3.8-11.8-5.9l-8.8-4.6
					l8.6-5l0,0l0.2-0.1l0.2-0.1c4.1-1.9,8.1-3.6,12.1-5.3l12-5.2c8-3.4,15.9-6.9,23.7-10.5c3.9-1.8,7.8-3.6,11.7-5.5
					c1.9-0.9,3.8-1.9,5.7-2.8l3-1.5c1.1-0.5,2.2-1,3.3-1.5c4.4-1.8,9-3.2,13.9-3.9c4.9-0.6,10.1-0.6,15.4,1.2
					c2.6,0.9,5.2,2.3,7.5,4.3c2.2,2,4,4.5,5.1,7.2c1.2,2.6,1.7,5.4,2,8c0.2,2.6,0.2,5.2-0.2,7.6l-0.1,0.8l-0.2,1
					c-0.1,0.7-0.3,1.4-0.5,2.1c-0.4,1.3-0.8,2.6-1.4,3.9c-1.2,2.6-2.8,5-5,7.1c-2.2,2-4.8,3.5-7.6,4.5c-2.7,1-5.6,1.4-8.4,1.1
					c-5.5-0.7-10.6-3-14.5-7.1c-1.9-2-3.4-4.5-4.2-7.3c-0.2-0.7-0.3-1.4-0.4-2.1c-0.1-0.7-0.1-1.4-0.1-2.1c0.1-0.7,0.1-1.4,0.2-2.1
					l0.2-1l0.1-0.5l0.1-0.2l0-0.1c0.1-0.3,0-0.1,0.1-0.2l0,0l0.3-0.8c0.1-0.3,0.3-0.7,0.5-1.1c0.4-0.7,0.7-1.2,1.2-1.8
					c0.9-1.1,2-2,3.2-2.7c2.4-1.3,5.2-1.7,7.7-1.1c1.3,0.3,2.5,1,3.4,1.8c1,0.9,1.6,2.1,1.9,3.2c0.3,1.2,0.3,2.4,0.1,3.5
					c-0.2,1.1-0.6,2.2-1,3.2c0.4-2.1,0.3-4.4-0.6-6.1c-0.5-0.8-1.1-1.5-1.9-1.9c-0.8-0.4-1.6-0.6-2.5-0.6c-1.7-0.1-3.5,0.6-4.7,1.7
					c-0.6,0.5-1.1,1.2-1.4,1.9c-0.2,0.3-0.3,0.7-0.4,1c0,0.2,0,0.3-0.1,0.4l-0.1,0.8l0,0.1c0,0,0,0.2,0-0.1l0,0.1l0,0.2l0,0.3l0,0.6
					c0,0.4,0.1,0.8,0.1,1.2l0.3,1.1c0.2,0.3,0.3,0.7,0.4,1c0.7,1.3,1.8,2.5,3.1,3.4c2.6,1.8,6.1,2.6,9.3,2.3c1.6-0.2,3-0.2,4.4-0.6
					c1.4-0.4,2.6-1.1,3.6-2.1c1-0.9,1.8-2.1,2.4-3.5c0.3-0.7,0.6-1.5,0.8-2.2l0.2-1.1c0-0.2,0.1-0.3,0.1-0.5l0.1-0.8
					c0.5-3.7,0.2-7.3-0.9-9.9c-1.2-2.7-3.2-4.5-6.1-5.5c-2.9-1-6.6-1.2-10.3-0.7c-3.7,0.5-7.5,1.6-11.1,3.1
					c-3.3,1.3-7.5,3.7-11.4,5.5c-4,1.9-7.9,3.8-11.9,5.6c-8,3.6-15.9,7.1-23.9,10.6l-12,5.2c-4,1.7-8,3.4-11.8,5.2l0.4-0.2l0,0
					l-0.2-9.6c3.7,1.9,7.6,3.8,11.5,5.7l11.7,5.7c7.8,3.8,15.6,7.7,23.4,11.7c3.9,2,7.8,4,11.7,6.1l2.9,1.6l2.8,1.6l2.7,1.5
					c0.9,0.4,1.8,0.9,2.7,1.3c3.6,1.7,7.3,3,11,3.7c3.7,0.7,7.3,0.7,10.3-0.2c3-0.9,5.1-2.6,6.4-5.2c0.6-1.3,1.1-2.8,1.3-4.5
					c0.1-0.4,0.1-0.8,0.1-1.2l0-0.6l0-0.3l0-0.4l0-1.6c0,0.1,0-0.2,0,0.1l0,0l0-0.1l0-0.2l0-0.3l0-0.7c-0.2-3.5-1.4-6.4-3.3-8.4
					c-1-1-2.1-1.8-3.5-2.2c-1.4-0.4-2.9-0.6-4.4-0.8c-3.1-0.4-6.6,0.2-9.3,1.9c-2.7,1.7-4.4,4.2-4.3,7.7c0,1.5,0.6,2.9,1.7,4.1
					c1.1,1.1,2.8,1.9,4.5,2c0.9,0,1.7-0.1,2.5-0.5c0.8-0.4,1.5-1,2-1.8C729.9,418.8,730.1,416.6,729.8,414.4z"/>
			</g>
		</g>
	</g>
	<g>
		<polygon fill="#FFFFFF" points="567.7,442.6 642.1,313.8 716.5,442.6 		"/>
		<polygon fill="#FFFFFF" points="567.7,356.2 642.1,485.1 716.5,356.2 		"/>
	</g>
	<g>
		<path fill="#9BAFC0" d="M633.7,360.3c0.4,6.9,8.5,10.8,9.2,19c0.5-8.3,8.5-12.3,8.8-19.2c0.3-9.7-9.1-9.3-9.1-9.3
			S633.2,350.6,633.7,360.3z"/>
		<path fill="#9BAFC0" d="M633.7,438.5c0.4-6.9,8.5-10.8,9.2-19c0.5,8.3,8.5,12.3,8.8,19.2c0.3,9.7-9.1,9.3-9.1,9.3
			S633.2,448.2,633.7,438.5z"/>
		<path fill="#9BAFC0" d="M681.2,390.2c-6.9,0.4-10.8,8.5-19,9.2c8.3,0.5,12.3,8.5,19.2,8.8c9.7,0.3,9.3-9.1,9.3-9.1
			S690.9,389.7,681.2,390.2z"/>
		<path fill="#9BAFC0" d="M603,390.2c6.9,0.4,10.7,8.5,19,9.2c-8.3,0.5-12.3,8.5-19.2,8.8c-9.7,0.3-9.3-9.1-9.3-9.1
			S593.3,389.7,603,390.2z"/>
		<path fill="#9BAFC0" d="M676.6,419.5c-5.2-4.6-13.6-1.4-20-6.6c5.6,6.1,2.9,14.7,7.7,19.6c6.8,7,13,0,13,0S684,425.9,676.6,419.5z
			"/>
		<path fill="#9BAFC0" d="M620.5,365.1c4.7,5.1,1.8,13.6,7.3,19.8c-6.3-5.4-14.7-2.4-19.9-7.1c-7.2-6.6-0.4-13-0.4-13
			S613.9,358,620.5,365.1z"/>
		<path fill="#9BAFC0" d="M622.7,433.3c4.5-5.3,1.3-13.6,6.5-20.1c-6.1,5.6-14.6,3-19.6,7.8c-6.9,6.8,0.1,13,0.1,13
			S616.4,440.7,622.7,433.3z"/>
		<path fill="#9BAFC0" d="M676.7,376.8c-5,4.8-13.5,1.9-19.8,7.4c5.3-6.3,2.3-14.8,6.9-19.9c6.5-7.3,13-0.5,13-0.5
			S683.8,370.1,676.7,376.8z"/>
		<circle fill="#9BAFC0" cx="642.6" cy="399.2" r="11.8"/>
	</g>
</g>
<g>
	<path fill="#97BBCF" d="M664.7,20.4c-0.6,14.9-17.9,23.3-19.2,41c-1.3-17.7-18.6-26.1-19.2-41c-0.9-20.9,19.2-20.2,19.2-20.2
		S665.6-0.5,664.7,20.4z"/>
	<path fill="#97BBCF" d="M692,75c-8.6,12.1-27.7,9.7-38.4,23.9c8.5-15.6-1.4-32,6.2-44.8c10.6-18,27.1-6.4,27.1-6.4S704.2,58,692,75
		z"/>
	<path fill="#97BBCF" d="M709.2,121.9c-11,10-29.1,3.7-42.6,15.2c11.6-13.4,5.4-31.6,15.5-42.5c14.2-15.4,27.9-0.6,27.9-0.6
		S724.7,107.8,709.2,121.9z"/>
	<path fill="#97BBCF" d="M729.1,166.2c-12.8,7.5-29.3-2.4-44.8,6.1c14.1-10.7,11.8-29.8,23.9-38.4c17-12.1,27.4,5.2,27.4,5.2
		S747.1,155.6,729.1,166.2z"/>
	<path fill="#97BBCF" d="M750.3,209.4c-14.2,4.5-28-8.7-45.1-3.9c16.1-7.4,18.1-26.5,31.8-32.2c19.3-8.1,25.6,11.1,25.6,11.1
		S770.2,203,750.3,209.4z"/>
	<path fill="#97BBCF" d="M772.4,253.2c-14.8,1.1-25.2-15.1-42.9-14.3c17.4-3.4,23.7-21.5,38.4-23.9c20.6-3.3,22.3,16.7,22.3,16.7
		S793.2,251.7,772.4,253.2z"/>
	<path fill="#97BBCF" d="M802.3,297.5c-14.9,0.7-24.7-15.8-42.5-15.5c17.5-2.9,24.4-20.8,39.1-22.8c20.7-2.7,21.8,17.4,21.8,17.4
		S823.2,296.5,802.3,297.5z"/>
	<path fill="#97BBCF" d="M824.1,343.6c-14.7-2-21.4-20-38.9-23c17.7,0.4,27.7-16,42.6-15.2c20.9,1.1,18.2,21.1,18.2,21.1
		S844.9,346.4,824.1,343.6z"/>
	<path fill="#97BBCF" d="M840,392.9c-14.7-2-21.4-20-38.9-23c17.7,0.4,27.7-16,42.6-15.2c20.9,1.1,18.2,21.1,18.2,21.1
		S860.7,395.8,840,392.9z"/>
	<path fill="#97BBCF" d="M842.8,444.3c-14.6-3-20-21.4-37.3-25.6c17.7,1.6,28.8-14.1,43.5-12.3c20.8,2.5,16.8,22.3,16.8,22.3
		S863.3,448.6,842.8,444.3z"/>
	<path fill="#97BBCF" d="M829.3,491.7c-12.9-7.3-12.6-26.5-27.7-35.8c16.4,6.9,31.7-4.7,45.2,1.5c19,8.7,9.2,26.3,9.2,26.3
		S847.5,502,829.3,491.7z"/>
	<path fill="#97BBCF" d="M805.6,533.1c-11.3-9.7-7.1-28.5-20.2-40.5c14.7,9.9,32,1.6,44.1,10.3c16.9,12.3,3.9,27.6,3.9,27.6
		S821.5,546.7,805.6,533.1z"/>
	<path fill="#97BBCF" d="M770.1,565.8c-7.6-12.8,2.2-29.3-6.4-44.8c10.8,14.1,29.9,11.6,38.5,23.7c12.2,17-5,27.4-5,27.4
		S780.8,583.8,770.1,565.8z"/>
	<path fill="#97BBCF" d="M723.7,587.5c-4.4-14.2,9.1-27.9,4.5-45c7.2,16.2,26.2,18.4,31.8,32.2c7.8,19.4-11.4,25.4-11.4,25.4
		S729.8,607.5,723.7,587.5z"/>
	<path fill="#97BBCF" d="M626.9,602.4c0.6-14.9,17.9-23.3,19.2-41c1.3,17.7,18.6,26.1,19.2,41c0.9,20.9-19.2,20.2-19.2,20.2
		S626,623.3,626.9,602.4z"/>
	<path fill="#97BBCF" d="M675.3,603.5c-2.1-14.7,13.3-26.2,11.3-43.8c4.6,17.1,23.1,22.2,26.5,36.7c4.7,20.4-15.2,23.4-15.2,23.4
		S678.3,624.2,675.3,603.5z"/>
	<path fill="#97BBCF" d="M594.2,73.9c8.6,12.1,27.7,9.7,38.4,23.9c-8.5-15.6,1.4-32-6.2-44.8c-10.6-18-27.1-6.4-27.1-6.4
		S582.1,56.9,594.2,73.9z"/>
	<path fill="#97BBCF" d="M577,120.8c11,10,29.1,3.7,42.6,15.2c-11.6-13.4-5.4-31.6-15.5-42.5c-14.2-15.4-27.9-0.6-27.9-0.6
		S561.5,106.8,577,120.8z"/>
	<path fill="#97BBCF" d="M557.1,165.2c12.8,7.5,29.3-2.4,44.8,6.1c-14.1-10.7-11.8-29.8-23.9-38.4c-17-12.1-27.4,5.2-27.4,5.2
		S539.1,154.6,557.1,165.2z"/>
	<path fill="#97BBCF" d="M535.9,208.3c14.2,4.5,28-8.7,45.1-3.9c-16.1-7.4-18.1-26.5-31.8-32.2c-19.3-8.1-25.6,11.1-25.6,11.1
		S516,201.9,535.9,208.3z"/>
	<path fill="#97BBCF" d="M513.8,252.1c14.8,1.1,25.2-15.1,42.9-14.3c-17.4-3.4-23.7-21.5-38.4-23.9c-20.6-3.3-22.3,16.7-22.3,16.7
		S493,250.6,513.8,252.1z"/>
	<path fill="#97BBCF" d="M483.9,296.4c14.9,0.7,24.7-15.8,42.5-15.5c-17.5-2.9-24.4-20.8-39.1-22.8c-20.7-2.7-21.8,17.4-21.8,17.4
		S463,295.5,483.9,296.4z"/>
	<path fill="#97BBCF" d="M462.1,342.5c14.7-2,21.4-20,38.9-23c-17.7,0.4-27.7-16-42.6-15.2c-20.9,1.1-18.2,21.1-18.2,21.1
		S441.4,345.4,462.1,342.5z"/>
	<path fill="#97BBCF" d="M446.2,391.9c14.7-2,21.4-20,38.9-23c-17.7,0.4-27.7-16-42.6-15.2c-20.9,1.1-18.2,21.1-18.2,21.1
		S425.5,394.7,446.2,391.9z"/>
	<path fill="#97BBCF" d="M443.4,443.3c14.6-3,20-21.4,37.3-25.6c-17.7,1.6-28.8-14.1-43.5-12.3c-20.8,2.5-16.8,22.3-16.8,22.3
		S422.9,447.6,443.4,443.3z"/>
	<path fill="#97BBCF" d="M456.9,490.6c12.9-7.3,12.6-26.5,27.7-35.8c-16.4,6.9-31.7-4.7-45.2,1.5c-19,8.7-9.2,26.3-9.2,26.3
		S438.7,500.9,456.9,490.6z"/>
	<path fill="#97BBCF" d="M480.6,532c11.3-9.7,7.1-28.5,20.2-40.5c-14.7,9.9-32,1.6-44.1,10.3c-16.9,12.3-3.9,27.6-3.9,27.6
		S464.8,545.6,480.6,532z"/>
	<path fill="#97BBCF" d="M516.1,564.7c7.6-12.8-2.2-29.3,6.4-44.8c-10.8,14.1-29.9,11.6-38.5,23.7c-12.2,17,5,27.4,5,27.4
		S505.4,582.7,516.1,564.7z"/>
	<path fill="#97BBCF" d="M562.5,586.4c4.4-14.2-9.1-27.9-4.5-45c-7.2,16.2-26.2,18.4-31.8,32.2c-7.8,19.4,11.4,25.4,11.4,25.4
		S556.4,606.4,562.5,586.4z"/>
	<path fill="#97BBCF" d="M610.9,602.5c2.1-14.7-13.3-26.2-11.3-43.8c-4.6,17.1-23.1,22.2-26.5,36.7c-4.7,20.4,15.2,23.4,15.2,23.4
		S607.9,623.2,610.9,602.5z"/>
</g>
<g>
	<path fill="#FFFFFF" d="M653,244.7c1.7,0.2,3.4,0.1,4.7-0.7c1.3-0.7,1.8-2.1,1.7-3.3c0-1.3-0.6-2.5-1.5-3.3c-0.9-0.8-1.9-1.2-3-1.2
		c-2.5,0-4.3,1.2-5.5,3.2c-1.2,1.9-1.7,4.5-1.3,6.8c0.1,1.1,0.2,2.2,0.5,3.1c0.3,1,0.8,1.8,1.5,2.5c1.3,1.3,3.4,2.3,6,2.5l0.5,0
		l0.2,0l0.1,0l0.1,0l0,0c-0.3,0-0.1,0-0.1,0l1.3,0l0.3,0l0.2,0l0.4,0c0.3,0,0.6,0,0.9-0.1c1.2-0.1,2.4-0.4,3.3-0.9
		c1.9-0.9,3-2.2,3.7-4.4c0.7-2.1,0.7-4.9,0.3-7.6c-0.5-2.8-1.4-5.6-2.6-8.3c-1.1-2.7-2.9-5.5-4.5-8.7c-1.6-3.1-3.1-6.1-4.5-9.1
		c-2.9-6.1-5.8-12.2-8.6-18.3l-4.2-9.1c-1.4-3-2.8-6.1-4.2-8.9l8.7,0.4l0,0l0.2-0.4c-1.4,2.9-2.8,5.9-4.2,9l-4.2,9.1
		c-2.8,6.1-5.7,12.2-8.6,18.3c-1.5,3-3,6.1-4.5,9.1c-1.5,3-3.4,6.2-4.5,8.7c-1.2,2.7-2.1,5.6-2.6,8.4c-0.4,2.8-0.4,5.5,0.3,7.6
		c0.7,2.2,1.9,3.5,3.7,4.4c1.9,0.9,4.5,1.2,7.3,0.8l0.6-0.1c0.2,0,0.3-0.1,0.4-0.1l0.8-0.1c0.6-0.2,1.1-0.3,1.6-0.5
		c1-0.4,1.8-1,2.5-1.7c0.7-0.7,1.2-1.5,1.5-2.5c0.3-1,0.3-2,0.5-3.1c0.3-2.2-0.1-4.9-1.3-6.8c-0.6-1-1.4-1.8-2.3-2.3
		c-0.2-0.1-0.5-0.2-0.7-0.4l-0.8-0.3l-0.9-0.2l-0.5,0l-0.2,0l-0.1,0l-0.1,0c0.3-0.1,0,0,0.1,0l0,0l-0.6,0.1c-0.1,0-0.2,0-0.3,0
		c-0.2,0-0.5,0.1-0.8,0.2c-0.5,0.2-1,0.5-1.4,0.9c-0.9,0.8-1.4,2.1-1.5,3.4c-0.1,1.3,0.5,2.6,1.7,3.4c1.3,0.8,3,0.9,4.7,0.7
		c-1.5,0.7-3.3,1.2-5.2,0.7c-0.9-0.2-1.9-0.8-2.6-1.5c-0.7-0.8-1.2-1.7-1.4-2.7c-0.5-2-0.2-4.2,0.9-6.1c0.5-1,1.3-1.8,2.2-2.5
		c0.5-0.4,0.9-0.6,1.5-0.9c0.3-0.1,0.6-0.3,0.9-0.4l0.6-0.2l0,0c0.1,0-0.1,0,0.2,0l0.1,0l0.2,0l0.4-0.1l0.8-0.2
		c0.5-0.1,1.1-0.1,1.7-0.2c0.6,0,1.1,0,1.7,0.1c0.6,0.1,1.1,0.2,1.7,0.4c2.2,0.6,4.2,1.9,5.8,3.4c3.2,3.1,5,7.2,5.5,11.7
		c0.2,2.2-0.2,4.6-1,6.7c-0.8,2.2-2.1,4.3-3.8,6c-1.7,1.7-3.7,3-5.8,3.9c-1,0.5-2.1,0.8-3.1,1c-0.6,0.1-1.1,0.2-1.7,0.3l-0.8,0.1
		l-0.6,0.1c-1.9,0.2-4,0.2-6.1,0c-2.1-0.2-4.3-0.8-6.4-1.7c-2.1-1-4.1-2.4-5.7-4.3c-1.6-1.8-2.7-4-3.4-6.1
		c-1.4-4.3-1.3-8.5-0.7-12.3c0.6-3.8,1.8-7.4,3.3-10.8c0.4-0.8,0.8-1.7,1.2-2.6l1.2-2.3c0.8-1.4,1.5-2.9,2.3-4.4
		c1.5-2.9,3-5.9,4.4-8.9c2.9-6,5.7-12,8.5-18.1l4.2-9.1c1.4-3.1,2.8-6.1,4.4-9.2l0.1-0.2l0.1-0.2l0,0l4.7-7.7l4,8.1
		c1.6,3.1,2.9,6.2,4.4,9.2l4.2,9.1c2.8,6.1,5.6,12.1,8.5,18.1c1.4,3,2.9,6,4.4,8.9l1.1,2.2l1.2,2.2l1.2,2.3c0.4,0.8,0.8,1.6,1.2,2.5
		c1.5,3.4,2.7,7,3.3,10.8c0.6,3.8,0.7,8-0.7,12.3c-0.7,2.1-1.8,4.3-3.4,6.1c-1.6,1.8-3.6,3.3-5.7,4.3c-2.1,1-4.3,1.5-6.4,1.7
		c-0.5,0.1-1,0.1-1.6,0.1l-0.8,0l-0.4,0l-0.3,0l-1.3,0l-0.2,0l0,0l-0.1,0l-0.2,0l-0.4,0l-0.8-0.1c-2-0.2-4.2-0.7-6.3-1.6
		c-2.1-0.9-4.1-2.2-5.8-3.9c-1.7-1.7-2.9-3.8-3.8-6c-0.9-2.2-1.3-4.5-1.1-6.7c0.2-2.2,0.8-4.4,1.7-6.4c0.9-2,2.1-3.8,3.7-5.4
		c1.6-1.6,3.6-2.8,5.9-3.5c0.6-0.2,1.1-0.2,1.7-0.4c0.6-0.1,1.1-0.1,1.7-0.1c0.6,0,1.3,0.1,1.8,0.2l0.6,0.2l0.3,0.1l0.2,0l0.1,0
		c0.4,0.1,0.1,0,0.2,0l0.1,0c2.2,0.6,4.2,2.2,5.3,4.1c1.1,1.9,1.4,4.1,0.9,6.2c-0.3,1-0.8,2-1.5,2.8c-0.7,0.8-1.6,1.3-2.6,1.6
		C656.3,245.9,654.5,245.4,653,244.7z"/>
</g>
<g>
	<defs>
		<rect id="SVGID_2_" x="1.3" y="0" width="1278.9" height="835"/>
	</defs>
	<clipPath id="SVGID_3_">
		<use xlink:href="#SVGID_2_"  overflow="visible"/>
	</clipPath>
	<path clip-path="url(#SVGID_3_)" fill="#333366" d="M1280.2,828.7v-7.6h-2.5c-3.5,0-6.6-2.9-6.6-6.3v-35c0-7.2-3.1-13.9-9.2-18.2
		c-6.8-4.7-15.6-5.1-23.3-3.1c-6.5,1.6-12.9,4.9-18.2,9.6v-10.4l-34.2,6.5l1.4,7.6l4.9-0.8c4.5-0.8,7.6,0.4,7.6,5.7v38.1
		c0,3.5-2.9,6.3-6.3,6.3h-2.9v7.6h39.7v-7.6h-3.7c-3.5,0-6.5-2.9-6.5-6.3l0.2-27.8c0-9,8.6-16.6,17.4-16.6c7.8,0,12.9,5.7,12.9,13.1
		v31.3c0,3.5-3.1,6.3-6.3,6.3h-2.9v7.6H1280.2z M1150.5,809.7c-7.8,10.4-21.3,7.4-29.5-0.8c-9-9.2-13.1-26.2-4.9-37.2
		c8-10.4,21.5-7.4,29.5,0.8C1154.8,781.6,1158.8,798.6,1150.5,809.7 M1163.3,818.7c17.4-15.6,15.5-40.1-1.6-54.8
		c-17-14.7-44-15.1-61,0c-17,15.3-15.8,40.1,1.4,54.8C1119.1,833.2,1146.6,833.8,1163.3,818.7 M1076.3,828.7v-7.6h-3.9
		c-3.5,0-6.5-2.9-6.5-6.3V704.5l-34.2,6.5l1.6,7.4l4.9-0.6c4.5-0.6,7.6,0.4,7.6,5.5v91.5c0,3.5-3.1,6.3-6.6,6.3h-2.9v7.6H1076.3z
		 M1026.5,825.4l-3.3-7c-0.6,0.4-1.2,0.6-1.6,0.8c-1.4,0.6-2.7,0.2-3.5-0.6c-1-1-1.4-2.3-1.4-3.5v-28c0-17-10.6-26.8-27.4-26.8
		c-11.3,0-23.3,3.9-31.5,11.7l4.3,6.1c5.5-3.3,12.1-4.9,18.4-4.9c8.8,0,15.8,3.7,15.8,13.5v30.7c-3.1,2.5-5.7,4.3-10.4,4.3
		c-5.9,0-12.9-3.9-12.9-10.6c0-6.5,7-10.4,12.9-10.4c1,0,2.1,0.2,3.1,0.4v-8.8c-3.1-1-6.5-1.6-9.8-1.6c-12.1,0-25.8,7.8-25.8,21.3
		c0,13.3,13.7,21.1,25.8,21.1c5.9,0,12.3-1.8,17.2-5.3v4.9C1007.5,832.6,1016.5,830.1,1026.5,825.4 M941.4,793.9
		c0-11-4.7-19.2-11.3-25.8c-6.3-6.7-14.7-11.7-22.7-16.4c-3.5-2.3-6.8-4.3-10-6.5c-4.5-3.3-8-8.4-8-14.1c0-10.8,10.6-18,20.7-18
		c9.4,0,19.4,6.1,20.5,16.2l7.6-0.4v-22.3c-8.4-4.5-16.6-7-26.2-7c-22.3,0-44.6,12.7-44.6,37.4c0,10.8,3.9,18.8,9.8,25.2
		c5.7,6.5,13.5,11.5,21.3,16.4c5.5,3.7,12.5,7.6,16.6,12.9c1.8,2.7,3.3,5.3,3.3,8.8c0.8,11-8.8,17.2-18.8,17.2
		c-10,0-21.1-7.2-21.5-18h-10v21.3c9.2,6.5,19.2,10.6,30.5,10.6C919.7,831.4,941.4,816.8,941.4,793.9 M809.6,825.4l-3.3-7
		c-0.6,0.4-1.2,0.6-1.6,0.8c-1.4,0.6-2.7,0.2-3.5-0.6c-1-1-1.4-2.3-1.4-3.5v-28c0-17-10.6-26.8-27.4-26.8
		c-11.2,0-23.3,3.9-31.5,11.7l4.3,6.1c5.5-3.3,12.1-4.9,18.4-4.9c8.8,0,15.8,3.7,15.8,13.5v30.7c-3.1,2.5-5.7,4.3-10.4,4.3
		c-5.9,0-12.9-3.9-12.9-10.6c0-6.5,7-10.4,12.9-10.4c1,0,2,0.2,3.1,0.4v-8.8c-3.1-1-6.5-1.6-9.8-1.6c-12.1,0-25.8,7.8-25.8,21.3
		c0,13.3,13.7,21.1,25.8,21.1c5.9,0,12.3-1.8,17.2-5.3v4.9C790.6,832.6,799.6,830.1,809.6,825.4 M725.5,828.7v-7.6h-3.9
		c-3.5,0-6.5-2.9-6.5-6.3V704.5l-34.2,6.5l1.6,7.4l4.9-0.6c4.5-0.6,7.6,0.4,7.6,5.5v91.5c0,3.5-3.1,6.3-6.5,6.3h-2.9v7.6H725.5z
		 M673.7,828.7v-7.6h-3.9c-3.5,0-6.5-2.9-6.5-6.3V704.5l-34.2,6.5l1.6,7.4l4.9-0.6c4.5-0.6,7.6,0.4,7.6,5.5v91.5
		c0,3.5-3.1,6.3-6.5,6.3h-2.9v7.6H673.7z M601.3,780.2h-31.9c2.7-7.8,8-13.3,16.8-13.3C593.7,766.9,600.9,772,601.3,780.2
		 M621.5,790c-0.6-10.2-2.9-18.2-10.8-25.2c-14.5-12.5-38.3-10.4-51.6,2.3c-15.5,14.5-15.3,38.9-0.4,53.4
		c12.3,12.3,31.7,14.3,46.9,5.7c5.7-3.3,10.8-8.2,13.9-14.3l-6.1-4.7c-2.5,2.9-5.5,5.3-9,7c-9.6,4.3-21.9,2.7-29.7-4.5
		c-6.1-5.5-7.8-11.9-7.2-19.6H621.5z M509.8,793.9c-0.2,15.8-13.3,27.2-28.8,27.2c-5.5,0-11-1.8-15.5-5.3V714.3
		c1.8-0.4,3.5-0.6,5.3-0.6c11.3,0,23.5,7.8,23.5,20c0,12.3-5.9,19-17.8,21.1l0.2,7.6c10,1.4,16.2-0.4,25,9.4
		C506.8,777.7,510,785.7,509.8,793.9 M533.1,790.2c-0.4-10.8-5.7-20.5-14.1-27.4c-4.5-3.7-9.8-6.5-15.8-8.6
		c8.2-4.7,14.5-12.9,14.5-22.7c0-18-19.2-28-35.2-28h-49.7v7.6h4.9c3.5,0,6.3,2.9,6.3,6.3v97.4c0,3.5-2.9,6.3-6.3,6.3h-4.9v7.6H489
		c12.3,0,23.5-4.3,31.3-11C528.4,810.5,533.4,800.9,533.1,790.2 M375,825.4l-3.3-7c-0.6,0.4-1.2,0.6-1.6,0.8
		c-1.4,0.6-2.7,0.2-3.5-0.6c-1-1-1.4-2.3-1.4-3.5v-28c0-17-10.6-26.8-27.4-26.8c-11.3,0-23.3,3.9-31.5,11.7l4.3,6.1
		c5.5-3.3,12.1-4.9,18.4-4.9c8.8,0,15.8,3.7,15.8,13.5v30.7c-3.1,2.5-5.7,4.3-10.4,4.3c-5.9,0-12.9-3.9-12.9-10.6
		c0-6.5,7-10.4,12.9-10.4c1,0,2,0.2,3.1,0.4v-8.8c-3.1-1-6.6-1.6-9.8-1.6c-12.1,0-25.8,7.8-25.8,21.3c0,13.3,13.7,21.1,25.8,21.1
		c5.9,0,12.3-1.8,17.2-5.3v4.9C356,832.6,365,830.1,375,825.4 M290.9,828.7v-7.6H287c-3.5,0-6.5-2.9-6.5-6.3V704.5l-34.2,6.5
		l1.6,7.4l4.9-0.6c4.5-0.6,7.6,0.4,7.6,5.5v91.5c0,3.5-3.1,6.3-6.5,6.3H251v7.6H290.9z M239.1,828.7v-7.6h-3.9
		c-3.5,0-6.5-2.9-6.5-6.3V704.5l-34.2,6.5l1.6,7.4l4.9-0.6c4.5-0.6,7.6,0.4,7.6,5.5v91.5c0,3.5-3.1,6.3-6.6,6.3h-2.9v7.6H239.1z
		 M189,828.7v-7.6h-3.7c-3.5,0-6.5-2.9-6.5-6.3v-57.1l-34.2,6.5l1.4,7.6l4.9-0.8c4.3-0.8,7.6,0.4,7.6,5.7v38.1
		c0,3.5-2.9,6.3-6.3,6.3h-2.9v7.6H189z M179.1,732.9c0-7.4-6.1-13.3-13.3-13.3c-7.4,0-13.3,5.9-13.3,13.3c0,7.2,5.9,13.3,13.3,13.3
		C173,746.2,179.1,740.1,179.1,732.9 M151.3,711.1v-7.6H103v7.6h13.5c2.7,0,4.5,2.3,4.5,4.7c0,0.8-0.2,1.6-0.4,2.2l-37.9,78.8
		l-40.7-79c-0.4-0.6-0.6-1.4-0.6-2.3c0-4.9,4.5-4.5,8-4.5v-7.6H1.3v7.6H6c4.7,0,10,3.9,12.1,8l60,116l56.7-116c2-4.1,7.2-8,11.7-8
		H151.3z"/>
</g>
</svg>
